<mxfile host="app.diagrams.net" modified="2022-05-07T03:01:44.108Z" agent="5.0 (Macintosh; Intel Mac OS X 10_15_7) AppleWebKit/537.36 (KHTML, like Gecko) Chrome/100.0.4896.127 Safari/537.36" etag="5eTN5XIz9WMow6QSAwPX" version="18.0.1" type="github">
  <diagram id="kgpKYQtTHZ0yAKxKKP6v" name="Page-1">
    <mxGraphModel dx="996" dy="613" grid="1" gridSize="10" guides="1" tooltips="1" connect="1" arrows="1" fold="1" page="1" pageScale="1" pageWidth="850" pageHeight="1100" math="0" shadow="0">
      <root>
        <mxCell id="0" />
        <mxCell id="1" parent="0" />
        <mxCell id="Gn0aJZnov6bW7oV4H5cv-8" value="IDC（*.starbucks.net）" style="rounded=1;whiteSpace=wrap;html=1;fillColor=#fff2cc;strokeColor=#d6b656;fontFamily=Verdana;align=center;verticalAlign=top;fontStyle=1;fontColor=#EA6B66;labelBackgroundColor=none;labelBorderColor=none;" vertex="1" parent="1">
          <mxGeometry x="1050" y="290" width="550" height="290" as="geometry" />
        </mxCell>
        <mxCell id="Gn0aJZnov6bW7oV4H5cv-18" value="" style="rounded=1;whiteSpace=wrap;html=1;labelBackgroundColor=none;labelBorderColor=none;fontFamily=Verdana;fontSize=11;fillColor=#ffe6cc;strokeColor=#d79b00;" vertex="1" parent="1">
          <mxGeometry x="50" y="50" width="680" height="130" as="geometry" />
        </mxCell>
        <mxCell id="Gn0aJZnov6bW7oV4H5cv-1" value="NEW CFDC（*.sbuxcf.net）" style="rounded=1;whiteSpace=wrap;html=1;fillColor=#fff2cc;strokeColor=#d6b656;fontFamily=Verdana;align=center;verticalAlign=top;fontStyle=1;fontColor=#EA6B66;labelBackgroundColor=none;labelBorderColor=none;" vertex="1" parent="1">
          <mxGeometry x="50" y="240" width="720" height="780" as="geometry" />
        </mxCell>
        <mxCell id="Gn0aJZnov6bW7oV4H5cv-2" value="APP" style="strokeColor=#dddddd;shadow=1;strokeWidth=1;rounded=1;absoluteArcSize=1;arcSize=2;labelPosition=center;verticalLabelPosition=middle;align=center;verticalAlign=bottom;spacingLeft=0;fontColor=#999999;fontSize=12;whiteSpace=wrap;spacingBottom=2;labelBackgroundColor=none;labelBorderColor=none;fontFamily=Verdana;" vertex="1" parent="1">
          <mxGeometry x="80" y="70" width="70" height="85" as="geometry" />
        </mxCell>
        <mxCell id="Gn0aJZnov6bW7oV4H5cv-3" value="" style="dashed=0;connectable=0;html=1;fillColor=#757575;strokeColor=none;shape=mxgraph.gcp2.beacon;part=1;labelBackgroundColor=none;labelBorderColor=none;fontFamily=Verdana;fontColor=#EA6B66;" vertex="1" parent="Gn0aJZnov6bW7oV4H5cv-2">
          <mxGeometry x="0.5" width="36.5" height="50" relative="1" as="geometry">
            <mxPoint x="-18.25" y="10" as="offset" />
          </mxGeometry>
        </mxCell>
        <mxCell id="Gn0aJZnov6bW7oV4H5cv-4" value="POS" style="strokeColor=#dddddd;shadow=1;strokeWidth=1;rounded=1;absoluteArcSize=1;arcSize=2;labelPosition=center;verticalLabelPosition=middle;align=center;verticalAlign=bottom;spacingLeft=0;fontColor=#999999;fontSize=12;whiteSpace=wrap;spacingBottom=2;labelBackgroundColor=none;labelBorderColor=none;fontFamily=Verdana;" vertex="1" parent="1">
          <mxGeometry x="1490" y="310" width="70" height="90" as="geometry" />
        </mxCell>
        <mxCell id="Gn0aJZnov6bW7oV4H5cv-5" value="" style="dashed=0;connectable=0;html=1;fillColor=#757575;strokeColor=none;shape=mxgraph.gcp2.desktop_and_mobile;part=1;labelBackgroundColor=none;labelBorderColor=none;fontFamily=Verdana;fontColor=#EA6B66;" vertex="1" parent="Gn0aJZnov6bW7oV4H5cv-4">
          <mxGeometry x="0.5" width="50" height="33" relative="1" as="geometry">
            <mxPoint x="-25" y="18.5" as="offset" />
          </mxGeometry>
        </mxCell>
        <mxCell id="Gn0aJZnov6bW7oV4H5cv-6" value="Mini-Program" style="strokeColor=#dddddd;shadow=1;strokeWidth=1;rounded=1;absoluteArcSize=1;arcSize=2;labelPosition=center;verticalLabelPosition=middle;align=center;verticalAlign=bottom;spacingLeft=0;fontColor=#999999;fontSize=8;whiteSpace=wrap;spacingBottom=2;labelBackgroundColor=none;labelBorderColor=none;fontFamily=Verdana;" vertex="1" parent="1">
          <mxGeometry x="200" y="70" width="70" height="85" as="geometry" />
        </mxCell>
        <mxCell id="Gn0aJZnov6bW7oV4H5cv-7" value="" style="dashed=0;connectable=0;html=1;fillColor=#757575;strokeColor=none;shape=mxgraph.gcp2.beacon;part=1;labelBackgroundColor=none;labelBorderColor=none;fontFamily=Verdana;fontColor=#EA6B66;" vertex="1" parent="Gn0aJZnov6bW7oV4H5cv-6">
          <mxGeometry x="0.5" width="36.5" height="50" relative="1" as="geometry">
            <mxPoint x="-18.25" y="10" as="offset" />
          </mxGeometry>
        </mxCell>
        <mxCell id="Gn0aJZnov6bW7oV4H5cv-9" value="Ali" style="strokeColor=#dddddd;shadow=1;strokeWidth=1;rounded=1;absoluteArcSize=1;arcSize=2;labelPosition=center;verticalLabelPosition=middle;align=center;verticalAlign=bottom;spacingLeft=0;fontColor=#999999;fontSize=8;whiteSpace=wrap;spacingBottom=2;labelBackgroundColor=none;labelBorderColor=none;fontFamily=Verdana;" vertex="1" parent="1">
          <mxGeometry x="320" y="70" width="70" height="85" as="geometry" />
        </mxCell>
        <mxCell id="Gn0aJZnov6bW7oV4H5cv-10" value="" style="dashed=0;connectable=0;html=1;fillColor=#757575;strokeColor=none;shape=mxgraph.gcp2.beacon;part=1;labelBackgroundColor=none;labelBorderColor=none;fontFamily=Verdana;fontColor=#EA6B66;" vertex="1" parent="Gn0aJZnov6bW7oV4H5cv-9">
          <mxGeometry x="0.5" width="36.5" height="50" relative="1" as="geometry">
            <mxPoint x="-18.25" y="10" as="offset" />
          </mxGeometry>
        </mxCell>
        <mxCell id="Gn0aJZnov6bW7oV4H5cv-11" value="TMall" style="strokeColor=#dddddd;shadow=1;strokeWidth=1;rounded=1;absoluteArcSize=1;arcSize=2;labelPosition=center;verticalLabelPosition=middle;align=center;verticalAlign=bottom;spacingLeft=0;fontColor=#999999;fontSize=8;whiteSpace=wrap;spacingBottom=2;labelBackgroundColor=none;labelBorderColor=none;fontFamily=Verdana;" vertex="1" parent="1">
          <mxGeometry x="425" y="70" width="70" height="85" as="geometry" />
        </mxCell>
        <mxCell id="Gn0aJZnov6bW7oV4H5cv-12" value="" style="dashed=0;connectable=0;html=1;fillColor=#757575;strokeColor=none;shape=mxgraph.gcp2.beacon;part=1;labelBackgroundColor=none;labelBorderColor=none;fontFamily=Verdana;fontColor=#EA6B66;" vertex="1" parent="Gn0aJZnov6bW7oV4H5cv-11">
          <mxGeometry x="0.5" width="36.5" height="50" relative="1" as="geometry">
            <mxPoint x="-18.25" y="10" as="offset" />
          </mxGeometry>
        </mxCell>
        <mxCell id="Gn0aJZnov6bW7oV4H5cv-13" value="WSG" style="strokeColor=#dddddd;shadow=1;strokeWidth=1;rounded=1;absoluteArcSize=1;arcSize=2;labelPosition=center;verticalLabelPosition=middle;align=center;verticalAlign=bottom;spacingLeft=0;fontColor=#999999;fontSize=8;whiteSpace=wrap;spacingBottom=2;labelBackgroundColor=none;labelBorderColor=none;fontFamily=Verdana;" vertex="1" parent="1">
          <mxGeometry x="530" y="70" width="70" height="85" as="geometry" />
        </mxCell>
        <mxCell id="Gn0aJZnov6bW7oV4H5cv-14" value="" style="dashed=0;connectable=0;html=1;fillColor=#757575;strokeColor=none;shape=mxgraph.gcp2.beacon;part=1;labelBackgroundColor=none;labelBorderColor=none;fontFamily=Verdana;fontColor=#EA6B66;" vertex="1" parent="Gn0aJZnov6bW7oV4H5cv-13">
          <mxGeometry x="0.5" width="36.5" height="50" relative="1" as="geometry">
            <mxPoint x="-18.25" y="10" as="offset" />
          </mxGeometry>
        </mxCell>
        <mxCell id="Gn0aJZnov6bW7oV4H5cv-15" value="Ali Cloud" style="rounded=1;whiteSpace=wrap;html=1;fillColor=#fff2cc;strokeColor=#d6b656;fontFamily=Verdana;align=center;verticalAlign=top;fontStyle=1;fontColor=#EA6B66;labelBackgroundColor=none;labelBorderColor=none;" vertex="1" parent="1">
          <mxGeometry x="860" y="65" width="770" height="120" as="geometry" />
        </mxCell>
        <mxCell id="Gn0aJZnov6bW7oV4H5cv-16" value="&lt;font style=&quot;font-size: 11px;&quot;&gt;CND&lt;/font&gt;" style="rounded=0;whiteSpace=wrap;html=1;labelBackgroundColor=none;labelBorderColor=none;fontFamily=Verdana;fontSize=6;verticalAlign=top;fillColor=#d5e8d4;strokeColor=#82b366;" vertex="1" parent="1">
          <mxGeometry x="875" y="100" width="745" height="70" as="geometry" />
        </mxCell>
        <mxCell id="Gn0aJZnov6bW7oV4H5cv-17" value="3pp" style="rounded=0;whiteSpace=wrap;html=1;labelBackgroundColor=none;labelBorderColor=none;fontFamily=Verdana;fontSize=11;fontColor=#333333;fillColor=#f5f5f5;strokeColor=#666666;" vertex="1" parent="1">
          <mxGeometry x="880" y="130" width="60" height="30" as="geometry" />
        </mxCell>
        <mxCell id="Gn0aJZnov6bW7oV4H5cv-19" value="Others" style="strokeColor=#dddddd;shadow=1;strokeWidth=1;rounded=1;absoluteArcSize=1;arcSize=2;labelPosition=center;verticalLabelPosition=middle;align=center;verticalAlign=bottom;spacingLeft=0;fontColor=#999999;fontSize=8;whiteSpace=wrap;spacingBottom=2;labelBackgroundColor=none;labelBorderColor=none;fontFamily=Verdana;" vertex="1" parent="1">
          <mxGeometry x="630" y="72.5" width="70" height="85" as="geometry" />
        </mxCell>
        <mxCell id="Gn0aJZnov6bW7oV4H5cv-20" value="" style="dashed=0;connectable=0;html=1;fillColor=#757575;strokeColor=none;shape=mxgraph.gcp2.beacon;part=1;labelBackgroundColor=none;labelBorderColor=none;fontFamily=Verdana;fontColor=#EA6B66;" vertex="1" parent="Gn0aJZnov6bW7oV4H5cv-19">
          <mxGeometry x="0.5" width="36.5" height="50" relative="1" as="geometry">
            <mxPoint x="-18.25" y="10" as="offset" />
          </mxGeometry>
        </mxCell>
        <mxCell id="Gn0aJZnov6bW7oV4H5cv-21" value="bff" style="rounded=0;whiteSpace=wrap;html=1;labelBackgroundColor=none;labelBorderColor=none;fontFamily=Verdana;fontSize=11;fontColor=#333333;fillColor=#f5f5f5;strokeColor=#666666;" vertex="1" parent="1">
          <mxGeometry x="950" y="130" width="60" height="30" as="geometry" />
        </mxCell>
        <mxCell id="Gn0aJZnov6bW7oV4H5cv-22" value="artwork" style="rounded=0;whiteSpace=wrap;html=1;labelBackgroundColor=none;labelBorderColor=none;fontFamily=Verdana;fontSize=11;fontColor=#333333;fillColor=#f5f5f5;strokeColor=#666666;" vertex="1" parent="1">
          <mxGeometry x="1020" y="130" width="60" height="30" as="geometry" />
        </mxCell>
        <mxCell id="Gn0aJZnov6bW7oV4H5cv-23" value="reservation" style="rounded=0;whiteSpace=wrap;html=1;labelBackgroundColor=none;labelBorderColor=none;fontFamily=Verdana;fontSize=11;fontColor=#333333;fillColor=#f5f5f5;strokeColor=#666666;" vertex="1" parent="1">
          <mxGeometry x="1090" y="130" width="70" height="30" as="geometry" />
        </mxCell>
        <mxCell id="Gn0aJZnov6bW7oV4H5cv-24" value="toggle" style="rounded=0;whiteSpace=wrap;html=1;labelBackgroundColor=none;labelBorderColor=none;fontFamily=Verdana;fontSize=11;fontColor=#333333;fillColor=#f5f5f5;strokeColor=#666666;" vertex="1" parent="1">
          <mxGeometry x="1170" y="130" width="70" height="30" as="geometry" />
        </mxCell>
        <mxCell id="Gn0aJZnov6bW7oV4H5cv-25" value="pcmd" style="rounded=0;whiteSpace=wrap;html=1;labelBackgroundColor=none;labelBorderColor=none;fontFamily=Verdana;fontSize=11;fontColor=#333333;fillColor=#f5f5f5;strokeColor=#666666;" vertex="1" parent="1">
          <mxGeometry x="1250" y="130" width="70" height="30" as="geometry" />
        </mxCell>
        <mxCell id="Gn0aJZnov6bW7oV4H5cv-26" value="active" style="rounded=0;whiteSpace=wrap;html=1;labelBackgroundColor=none;labelBorderColor=none;fontFamily=Verdana;fontSize=11;fontColor=#333333;fillColor=#f5f5f5;strokeColor=#666666;" vertex="1" parent="1">
          <mxGeometry x="1330" y="130" width="70" height="30" as="geometry" />
        </mxCell>
        <mxCell id="Gn0aJZnov6bW7oV4H5cv-27" value="3pph5" style="rounded=0;whiteSpace=wrap;html=1;labelBackgroundColor=none;labelBorderColor=none;fontFamily=Verdana;fontSize=11;fontColor=#333333;fillColor=#f5f5f5;strokeColor=#666666;" vertex="1" parent="1">
          <mxGeometry x="1410" y="130" width="70" height="30" as="geometry" />
        </mxCell>
        <mxCell id="Gn0aJZnov6bW7oV4H5cv-28" value="www" style="rounded=0;whiteSpace=wrap;html=1;labelBackgroundColor=none;labelBorderColor=none;fontFamily=Verdana;fontSize=11;fontColor=#333333;fillColor=#f5f5f5;strokeColor=#666666;" vertex="1" parent="1">
          <mxGeometry x="1490" y="130" width="70" height="30" as="geometry" />
        </mxCell>
        <mxCell id="Gn0aJZnov6bW7oV4H5cv-29" value="moment" style="rounded=0;whiteSpace=wrap;html=1;labelBackgroundColor=none;labelBorderColor=none;fontFamily=Verdana;fontSize=11;fontColor=#333333;fillColor=#f5f5f5;strokeColor=#666666;" vertex="1" parent="1">
          <mxGeometry x="1570" y="130" width="70" height="30" as="geometry" />
        </mxCell>
        <mxCell id="Gn0aJZnov6bW7oV4H5cv-30" value="ml-storage" style="rounded=0;whiteSpace=wrap;html=1;labelBackgroundColor=none;labelBorderColor=none;fontFamily=Verdana;fontSize=11;fontColor=#333333;fillColor=#f5f5f5;strokeColor=#666666;" vertex="1" parent="1">
          <mxGeometry x="1570" y="190" width="70" height="30" as="geometry" />
        </mxCell>
        <mxCell id="Gn0aJZnov6bW7oV4H5cv-31" value="static" style="rounded=0;whiteSpace=wrap;html=1;labelBackgroundColor=none;labelBorderColor=none;fontFamily=Verdana;fontSize=11;fontColor=#333333;fillColor=#f5f5f5;strokeColor=#666666;" vertex="1" parent="1">
          <mxGeometry x="1490" y="190" width="70" height="30" as="geometry" />
        </mxCell>
      </root>
    </mxGraphModel>
  </diagram>
</mxfile>
